<svg width="116" height="117" viewBox="0 0 116 117" fill="none" xmlns="http://www.w3.org/2000/svg">
<path d="M18.5808 67.5815C21.778 80.1858 30.2969 90.5414 41.1961 96.6981C52.1774 102.851 65.4569 104.808 74.1423 99.8755C82.8235 94.8605 86.9107 82.955 91.1676 70.3407C95.4676 57.7654 100.02 44.477 95.3488 36.8902C90.6391 29.3466 76.7066 27.5046 62.5696 26.4968C48.3936 25.5321 34.052 25.3585 25.739 32.7434C17.5081 40.1241 15.3836 54.9772 18.5808 67.5815Z" fill="url(#paint0_linear_80_1302)"/>
<path d="M52.0946 56.9078C52.5591 57.3722 53.312 57.372 53.7763 56.9078C54.2406 56.4434 54.2406 55.6905 53.7763 55.2261L52.0946 53.5444C51.6303 53.08 50.8773 53.08 50.4129 53.5444C49.9486 54.0088 49.9486 54.7617 50.4129 55.2261L52.0946 56.9078ZM58.3537 54.7139V52.3356C58.3537 51.6789 57.8213 51.1465 57.1645 51.1465C56.5078 51.1465 55.9754 51.6789 55.9754 52.3356V54.7139C55.9754 55.3707 56.5078 55.9031 57.1645 55.9031C57.8213 55.9031 58.3537 55.3707 58.3537 54.7139ZM49.2368 61.4525H51.6152C52.2719 61.4525 52.8043 60.9201 52.8043 60.2633C52.8043 59.6066 52.2719 59.0742 51.6152 59.0742H49.2368C48.5801 59.0742 48.0477 59.6066 48.0477 60.2633C48.0477 60.9201 48.5801 61.4525 49.2368 61.4525ZM63.6204 65.0701C63.1561 64.6057 62.4031 64.6057 61.9387 65.0701C61.4743 65.5345 61.4744 66.2873 61.9387 66.7518L63.6205 68.4335C64.0849 68.8978 64.8378 68.8978 65.3022 68.4335C65.7666 67.9691 65.7666 67.2162 65.3022 66.7518L63.6204 65.0701ZM66.5192 60.5012H64.1409C63.4842 60.5012 62.9518 61.0336 62.9518 61.6903C62.9518 62.347 63.4842 62.8795 64.1409 62.8795H66.5192C67.176 62.8795 67.7084 62.347 67.7084 61.6903C67.7084 61.0336 67.176 60.5012 66.5192 60.5012ZM58.5915 66.0505C57.9348 66.0505 57.4024 66.583 57.4024 67.2397V69.618C57.4024 70.2747 57.9348 70.8072 58.5915 70.8072C59.2483 70.8072 59.7807 70.2747 59.7807 69.618V67.2397C59.7807 66.583 59.2483 66.0505 58.5915 66.0505ZM64.6959 57.2508L64.8522 55.9222L67.2301 53.5443C67.6945 53.0799 67.6945 52.327 67.2301 51.8626C66.7658 51.3982 66.0128 51.3982 65.5484 51.8626L63.1705 54.2406L61.9212 54.5554L61.4287 55.9823L58.8215 58.5895C58.3571 59.0539 58.3571 59.8068 58.8215 60.2712C59.2859 60.7356 60.0389 60.7355 60.5032 60.2712L63.1104 57.664L64.6959 57.2508ZM53.7763 65.3163C51.4524 62.9924 47.689 62.995 45.3678 65.3163L39.3246 71.3594C37.0006 73.6833 37.0011 77.4445 39.3246 79.768C41.6485 82.0919 45.4098 82.0916 47.7332 79.768L53.7764 73.7249C56.0946 71.4067 56.0946 67.6346 53.7763 65.3163C53.7763 65.3164 53.7763 65.3164 53.7763 65.3163ZM52.0946 72.0433L46.0514 78.0864C44.657 79.4808 42.4003 79.4805 41.0063 78.0864C39.6119 76.6921 39.6122 74.4354 41.0063 73.0413L47.0495 66.9981C48.4438 65.6037 50.7005 65.604 52.0946 66.9981C53.4856 68.3891 53.4856 70.6523 52.0946 72.0433Z" fill="white"/>
<path opacity="0.5" d="M76.4315 42.6611C74.1133 40.3428 70.3411 40.3428 68.0229 42.6611L62.1849 48.499C60.1546 50.5294 59.9026 53.6749 61.4287 55.9821L63.1704 54.2404C62.5388 52.9146 62.7705 51.2769 63.8666 50.1807L69.7045 44.3428C71.0955 42.9518 73.3586 42.9519 74.7498 44.3428C76.1407 45.7337 76.1407 47.997 74.7498 49.388L68.9118 55.2259C67.8156 56.3221 66.178 56.5537 64.8521 55.9221L63.1103 57.6639C65.4177 59.1901 68.5632 58.938 70.5934 56.9076L76.4314 51.0697C78.7497 48.7515 78.7497 44.9794 76.4315 42.6611ZM55.4581 61.9528L48.7312 68.6797C48.2668 69.1441 48.2668 69.897 48.7312 70.3614C49.1956 70.8258 49.9486 70.8257 50.4129 70.3614L57.1398 63.6345C57.6042 63.1701 57.6042 62.4172 57.1398 61.9528C56.6754 61.4883 55.9225 61.4883 55.4581 61.9528Z" fill="white"/>
<defs>
<linearGradient id="paint0_linear_80_1302" x1="85.5775" y1="27.4662" x2="28.9171" y2="85.4556" gradientUnits="userSpaceOnUse">
<stop stop-color="#AD782D"/>
<stop offset="1" stop-color="#E2C75B"/>
</linearGradient>
</defs>
</svg>
