<svg width="116" height="117" viewBox="0 0 116 117" fill="none" xmlns="http://www.w3.org/2000/svg">
<path d="M18.5808 67.5815C21.778 80.1858 30.2969 90.5414 41.1961 96.6981C52.1774 102.851 65.4569 104.808 74.1423 99.8755C82.8235 94.8605 86.9107 82.955 91.1676 70.3407C95.4676 57.7654 100.02 44.477 95.3488 36.8902C90.6391 29.3466 76.7066 27.5046 62.5696 26.4968C48.3936 25.5321 34.052 25.3585 25.739 32.7434C17.5081 40.1241 15.3836 54.9772 18.5808 67.5815Z" fill="url(#paint0_linear_80_1334)"/>
<path d="M60.1926 39C53.6352 39 48.301 43.8801 48.301 49.7817C48.301 55.6834 53.6352 60.4842 60.1926 60.4842C66.75 60.4842 72.0842 55.6834 72.0842 49.7817C72.0842 43.8801 66.75 39 60.1926 39ZM36.3213 65.2408C35.5916 65.2408 35 65.7731 35 66.43V78.4008C35 79.0576 35.5916 79.59 36.3213 79.59H41.6064C42.3362 79.59 42.9277 79.0576 42.9277 78.4008V77.0721L44.249 74.7082V67.4189L42.9277 65.2408H36.3213Z" fill="white" fill-opacity="0.5"/>
<path d="M60.1926 53.3491C59.4648 53.3491 58.8713 52.8161 58.8713 52.16C58.8713 51.5027 58.2803 50.9708 57.55 50.9708C56.8197 50.9708 56.2287 51.5027 56.2287 52.16C56.2287 53.7082 57.3367 55.0158 58.8713 55.5084V56.9166C58.8713 57.5739 59.4623 58.1058 60.1926 58.1058C60.9229 58.1058 61.5139 57.5739 61.5139 56.9166V55.5084C63.0485 55.0158 64.1565 53.7082 64.1565 52.16C64.1565 50.1928 62.3783 48.5925 60.1926 48.5925C59.4648 48.5925 58.8713 48.0594 58.8713 47.4033C58.8713 46.7472 59.4648 46.2142 60.1926 46.2142C60.9203 46.2142 61.5139 46.7472 61.5139 47.4033C61.5139 48.0606 62.1048 48.5925 62.8352 48.5925C63.5655 48.5925 64.1565 48.0606 64.1565 47.4033C64.1565 45.855 63.0485 44.5474 61.5139 44.0549V42.6467C61.5139 41.9894 60.9229 41.4575 60.1926 41.4575C59.4623 41.4575 58.8713 41.9894 58.8713 42.6467V44.0549C57.3367 44.5474 56.2287 45.855 56.2287 47.4033C56.2287 49.3705 58.0068 50.9708 60.1926 50.9708C60.9203 50.9708 61.5139 51.5039 61.5139 52.16C61.5139 52.8161 60.9203 53.3491 60.1926 53.3491ZM79.7129 65.5891L79.7071 65.5839C78.2592 64.2818 75.9336 64.2391 74.4256 65.4845L66.3706 72.0633C66.038 72.339 65.5793 72.4322 65.1731 72.3432L53.3332 69.822C52.6234 69.6711 52.1848 69.0311 52.3525 68.3913C52.5177 67.7525 53.2247 67.3566 53.9422 67.5087L62.1651 69.2596C64.1876 69.6903 66.2225 68.5871 66.7432 66.7763C66.749 66.756 66.7546 66.7358 66.7603 66.7155C66.9357 66.0792 66.5048 65.4346 65.7977 65.2767L55.2274 62.8984C55.0158 62.8496 54.799 62.8496 54.5873 62.8984L42.9277 65.2407V77.072L65.3126 79.5806C65.7476 79.6251 66.1356 79.489 66.412 79.2416L79.713 67.2707C80.2291 66.8061 80.2291 66.0536 79.7129 65.5891Z" fill="white"/>
<defs>
<linearGradient id="paint0_linear_80_1334" x1="85.5775" y1="27.4662" x2="28.9171" y2="85.4556" gradientUnits="userSpaceOnUse">
<stop stop-color="#AD782D"/>
<stop offset="1" stop-color="#E2C75B"/>
</linearGradient>
</defs>
</svg>
