<svg width="116" height="117" viewBox="0 0 116 117" fill="none" xmlns="http://www.w3.org/2000/svg">
<path d="M18.5808 67.5815C21.778 80.1858 30.2969 90.5414 41.1961 96.6981C52.1774 102.851 65.4569 104.808 74.1423 99.8755C82.8235 94.8605 86.9107 82.955 91.1676 70.3407C95.4676 57.7654 100.02 44.477 95.3488 36.8902C90.6391 29.3466 76.7066 27.5046 62.5696 26.4968C48.3936 25.5321 34.052 25.3585 25.739 32.7434C17.5081 40.1241 15.3836 54.9772 18.5808 67.5815Z" fill="url(#paint0_linear_80_1318)"/>
<path opacity="0.5" d="M45.2142 53.9709C43.247 53.9709 41.6467 55.5712 41.6467 57.5384C41.6467 59.5056 43.247 61.1059 45.2142 61.1059C47.1814 61.1059 48.7817 59.5056 48.7817 57.5384C48.7817 55.5712 47.1814 53.9709 45.2142 53.9709ZM71.3757 53.9709C69.4086 53.9709 67.8083 55.5712 67.8083 57.5384C67.8083 59.5056 69.4086 61.1059 71.3757 61.1059C73.3429 61.1059 74.9432 59.5056 74.9432 57.5384C74.9432 55.5712 73.3429 53.9709 71.3757 53.9709Z" fill="white"/>
<path d="M45.6811 49.6822C49.0511 46.3133 53.5314 44.3783 58.295 44.3783C61.887 44.3783 65.3166 45.5151 68.2317 47.4784L67.8245 47.4583C67.1626 47.4119 66.6099 47.9333 66.5797 48.5883C66.5471 49.2444 67.0535 49.8018 67.7084 49.8343L71.6916 50.0294C72.0795 49.9447 72.3724 49.9837 72.6926 49.5661C72.9295 49.256 73.0015 48.8496 72.8831 48.4779L71.5568 44.3438C71.3548 43.719 70.6859 43.3741 70.0611 43.575C69.434 43.7759 69.0903 44.4448 69.29 45.0707L69.3957 45.3994C66.1266 43.2421 62.3018 42 58.295 42C52.895 42 47.8202 44.1823 43.9996 48.0007C43.5351 48.4651 43.5351 49.2177 43.9996 49.6822C44.464 50.1467 45.2165 50.1468 45.6811 49.6822ZM52.3492 69.43V68.2408C52.3492 64.3063 49.1487 61.1058 45.2142 61.1058C41.2798 61.1058 38 64.3063 38 68.2408V69.43C38 70.0872 38.5319 70.6191 39.1892 70.6191H51.16C51.8173 70.6191 52.3492 70.0872 52.3492 69.43ZM71.3758 61.1058C67.4413 61.1058 64.2408 64.3063 64.2408 68.2408V69.43C64.2408 70.0872 64.7727 70.6191 65.43 70.6191H77.4009C78.0581 70.6191 78.59 70.0872 78.59 69.43V68.2408C78.59 64.3063 75.3102 61.1058 71.3758 61.1058ZM70.9089 74.9871C67.5389 78.356 63.0586 80.2117 58.295 80.2117C54.703 80.2117 51.2734 79.1542 48.3583 77.1909L48.7655 77.211C49.4413 77.2435 49.9802 76.7371 50.0104 76.081C50.0429 75.4249 49.5365 74.8674 48.8816 74.8349L44.8984 74.6398C44.5105 74.6259 44.1342 74.7943 43.8974 75.1032C43.6605 75.4133 43.5885 75.8197 43.7069 76.1914L45.0332 80.3255C45.2313 80.9397 45.8908 81.2967 46.5289 81.0943C47.156 80.8934 47.4997 80.2244 47.3 79.5985L47.1944 79.2699C50.4634 81.4272 54.2882 82.59 58.295 82.59C63.695 82.59 68.7698 80.4869 72.5905 76.6686C73.0549 76.2041 73.0549 75.4515 72.5905 74.9871C72.126 74.5226 71.3735 74.5225 70.9089 74.9871Z" fill="white"/>
<defs>
<linearGradient id="paint0_linear_80_1318" x1="85.5775" y1="27.4662" x2="28.9171" y2="85.4556" gradientUnits="userSpaceOnUse">
<stop stop-color="#AD782D"/>
<stop offset="1" stop-color="#E2C75B"/>
</linearGradient>
</defs>
</svg>
